# xmcd
#
# Track frame offsets:
#	150
#	35848
#	68757
#	104472
#	138594
#
# Disc length: 2031 seconds
#
# Revision: 0
# Processed by: cddbd v1.5.2PL0 Copyright (c) Steve Scherf et al.
# Submitted via: audiograbber 1.83.01
#
DISCID=4707ed05
DTITLE=David Guetta - Delirious [CDs)
DYEAR=2008
DGENRE=Electro
TTITLE0=Delirious (original extended)
TTITLE1=Delirious (Laidback Luke rmx)
TTITLE2=Delirious (Arno Cost and Norman Doray rmx)
TTITLE3=Delirious (Fred Rister rmx)
TTITLE4=Delirious (radio)
EXTD=
EXTT0=
EXTT1=
EXTT2=
EXTT3=
EXTT4=
PLAYORDER=
